<svg width="57" height="56" viewBox="0 0 57 56" fill="none" xmlns="http://www.w3.org/2000/svg">
<path fill-rule="evenodd" clip-rule="evenodd" d="M24.0417 13.75C18.3577 13.75 13.75 18.3577 13.75 24.0416C13.75 29.7256 18.3577 34.3333 24.0417 34.3333C29.7256 34.3333 34.3333 29.7256 34.3333 24.0416C34.3333 18.3577 29.7256 13.75 24.0417 13.75ZM12.1667 24.0416C12.1667 17.4832 17.4833 12.1666 24.0417 12.1666C30.6 12.1666 35.9167 17.4832 35.9167 24.0416C35.9167 27.0365 34.808 29.7725 32.9786 31.8615L43.5988 42.4816C43.9079 42.7908 43.9079 43.2921 43.5988 43.6012C43.2896 43.9104 42.7883 43.9104 42.4792 43.6012L31.8589 32.9809C29.7702 34.8089 27.0353 35.9166 24.0417 35.9166C17.4833 35.9166 12.1667 30.6 12.1667 24.0416Z" fill="#555555"/>
<circle cx="28" cy="28" r="27" stroke="#555555" stroke-width="2"/>
</svg>
