<svg width="56" height="59" viewBox="0 0 56 59" fill="none" xmlns="http://www.w3.org/2000/svg">
<path fill-rule="evenodd" clip-rule="evenodd" d="M28 56.7231C20.692 56.7231 14.084 53.57 9.355 48.5105C9.466 48.3745 9.556 48.2197 9.588 48.0389C10.31 46.9615 16.188 43.6662 23.199 40.751C23.579 40.5931 23.828 40.2108 23.828 39.7859V34.4127C23.828 33.9971 23.557 33.6075 23.188 33.4444C23.169 33.4351 21.242 32.525 21.242 27.6972C21.242 27.1227 20.795 26.6583 20.242 26.6583C19.553 26.6583 19.303 25.6724 19.303 25.0096C19.303 24.5161 19.418 24.0528 19.62 23.739C19.834 23.4045 20.065 23.3619 20.242 23.3619C20.795 23.3619 21.242 22.8965 21.242 22.323C21.242 21.9417 21.081 21.5667 20.729 20.7459C19.736 18.4354 19.39 17.062 19.699 16.661C19.779 16.5592 20.187 16.4189 21.156 16.6236C21.677 16.7316 22.197 16.3992 22.326 15.8579C22.862 13.6305 26.174 12.6145 29.022 12.6145C31.872 12.6145 35.184 13.6305 35.72 15.8589C36.215 17.9149 35.395 19.8888 34.904 21.068C34.672 21.628 34.531 21.9656 34.531 22.323C34.531 22.8965 34.979 23.3619 35.531 23.3619C35.654 23.3619 35.98 23.3619 36.12 24.1535C36.329 25.3379 35.803 26.5544 35.552 26.6583C34.999 26.6583 34.552 27.1227 34.552 27.6972C34.552 32.5063 32.811 33.4423 32.816 33.4423C32.429 33.5961 32.173 33.9815 32.173 34.4127V39.7859C32.173 40.2108 32.422 40.5931 32.802 40.751C39.813 43.6662 45.691 46.9615 46.413 48.0389C46.446 48.2197 46.534 48.3745 46.646 48.5105C41.917 53.57 35.309 56.7231 28 56.7231M28 0.622437C12.561 0.622437 0 13.6721 0 29.7116C0 45.7512 12.561 58.8009 28 58.8009C43.439 58.8009 56 45.7512 56 29.7116C56 13.6721 43.439 0.622437 28 0.622437" fill="#666666"/>
</svg>
