<svg width="123" height="104" viewBox="0 0 123 104" fill="none" xmlns="http://www.w3.org/2000/svg">
<path d="M0.860168 69.4827L44.7273 0.896484C74.6602 10.9379 100.206 8.96545 109.238 6.72407L98.0878 25.5517C100.152 27.438 110.815 26.7859 114.829 24.6551C112.248 29.885 107.604 39.5379 107.948 41.6896C108.292 43.8413 117.409 42.1379 122.14 40.3448C116.635 53.2551 93.4686 87.5632 82.5734 103.103C69.8434 103.103 22.0769 86.2183 0.860168 77.5517V69.4827Z" fill="#D5E9E2"/>
<path d="M0.860168 77.5518V69.9311L31.3951 72.1725L49.4581 73.9656L65.8007 78.4483L97.6259 26.8966L114.399 25.1035L107.948 43.0346L121.28 42.138L83.0035 102.655L59.7797 98.1725L0.860168 77.5518Z" fill="#D1D1D1"/>
<path fill-rule="evenodd" clip-rule="evenodd" d="M44.0116 0.399309C44.2249 0.0657839 44.6247 -0.0796193 44.9908 0.0431855C74.7765 10.0352 100.163 8.05481 109.039 5.85204C109.377 5.768 109.731 5.905 109.935 6.19909C110.139 6.49319 110.153 6.88639 109.97 7.19514L99.2955 25.2194C99.355 25.2413 99.4188 25.2632 99.4869 25.285C99.9203 25.4232 100.469 25.5357 101.113 25.6171C102.402 25.7799 104.001 25.8096 105.681 25.7147C109.076 25.5229 112.596 24.8341 114.438 23.8563C114.771 23.6798 115.175 23.7469 115.438 24.0225C115.701 24.2982 115.764 24.7194 115.594 25.0653C114.304 27.6785 112.507 31.3816 111.076 34.6948C110.36 36.3532 109.743 37.8967 109.328 39.1486C109.12 39.7753 108.969 40.3118 108.879 40.7431C108.8 41.1286 108.784 41.3656 108.791 41.4869C108.805 41.4968 108.825 41.5099 108.855 41.5256C109.013 41.6102 109.298 41.6965 109.741 41.7486C110.618 41.8517 111.859 41.7945 113.292 41.6071C116.145 41.2339 119.544 40.3747 121.846 39.5023C122.17 39.3794 122.533 39.4704 122.769 39.7333C123.004 39.9963 123.066 40.3804 122.926 40.709C120.137 47.2493 112.923 59.1207 105.091 71.2389C97.2423 83.3837 88.7204 95.8553 83.2679 103.633C83.1059 103.864 82.8479 104 82.5734 104C79.2715 104 73.8034 102.916 67.2104 101.2C60.5876 99.4753 52.7424 97.0881 44.6413 94.4329C28.4393 89.1228 11.1748 82.7281 0.546297 78.3865C0.216782 78.2519 0 77.9207 0 77.5518V69.4828C0 69.3058 0.0502649 69.1328 0.14446 68.9855L44.0116 0.399309ZM98.3774 26.7695L66.9627 79.8158C66.8395 80.0239 66.6401 80.1705 66.4107 80.2216C66.1814 80.2728 65.9419 80.2241 65.7478 80.0868C63.4858 78.4869 59.4492 77.0748 54.2647 75.8674C49.1141 74.668 42.9431 73.6945 36.5001 72.9174C24.0348 71.4141 10.6119 70.6531 1.72028 70.4027V76.9396C12.3483 81.2591 29.2645 87.5136 45.1573 92.7224C53.2411 95.3719 61.0505 97.7476 67.6273 99.46C73.9327 101.102 79.0266 102.112 82.1409 102.201C87.592 94.4155 95.955 82.1662 103.665 70.2371C110.804 59.1895 117.341 48.4816 120.51 41.8411C118.338 42.5077 115.763 43.091 113.506 43.3862C112.025 43.5798 110.626 43.6571 109.549 43.5304C109.015 43.4677 108.494 43.3481 108.07 43.121C107.633 42.8878 107.202 42.4819 107.099 41.8371C107.028 41.3938 107.094 40.8697 107.198 40.3659C107.307 39.837 107.482 39.2255 107.702 38.563C108.141 37.2363 108.783 35.6363 109.507 33.9588C110.607 31.4113 111.917 28.6455 113.049 26.3163C110.935 26.9612 108.261 27.3646 105.774 27.5052C104.027 27.6039 102.323 27.5761 100.907 27.3972C100.199 27.3078 99.544 27.1784 98.9835 26.9996C98.7763 26.9335 98.5722 26.8576 98.3774 26.7695ZM2.43945 68.6299C11.3637 68.9001 24.4814 69.6629 36.6978 71.1362C43.1712 71.9169 49.4077 72.899 54.6398 74.1174C59.3531 75.2151 63.3453 76.5244 65.9535 78.1062L107.453 8.03114C96.9878 10.0648 72.957 11.1726 45.0832 1.95638L2.43945 68.6299Z" fill="black"/>
<path d="M0.860168 74.3731C22.2203 81.6857 69.0693 94.9374 78.7028 89.2067L108.378 42.1377" stroke="black" stroke-width="2" stroke-linejoin="round"/>
<path d="M81.7429 29.9869C81.1183 29.9494 80.3387 29.9566 78.175 29.4976C75.8087 28.9957 74.272 27.9878 75.6936 25.0006L77.4548 21.2999C78.8764 18.3127 81.0107 18.0836 83.3689 18.5838C85.5326 19.0428 86.163 19.3492 86.7054 19.5592C86.966 19.649 87.0104 19.762 86.8947 20.0051L86.3537 21.1419C86.2604 21.3379 86.0237 21.4604 85.8211 21.4174L82.1096 20.63C81.0561 20.4066 80.5073 20.6786 79.9551 21.839L79.6193 22.5446L84.5464 23.5898C84.749 23.6328 84.8364 23.824 84.7431 24.02L84.1387 25.2901C84.0454 25.4861 83.8087 25.6085 83.6061 25.5656L78.679 24.5204L78.1902 25.5475C77.638 26.7078 77.851 27.1414 78.9045 27.3649L82.616 28.1523C82.8186 28.1952 82.906 28.3864 82.8127 28.5824L82.2754 29.7114C82.1672 29.9388 82.0333 30.014 81.7429 29.9869Z" fill="#111111"/>
<path d="M65.1642 15.3868L58.7235 24.7585C58.5971 24.9303 58.3766 25.0561 58.1984 25.0183L58.012 24.9788C57.8499 24.9444 57.8124 24.7983 57.8795 24.6572C57.8982 24.618 57.9056 24.6023 57.9131 24.5866L64.3538 15.2149C64.4801 15.0431 64.7006 14.9173 64.8789 14.9551L65.0653 14.9946C65.2274 15.029 65.2649 15.1751 65.1978 15.3162C65.1791 15.3554 65.1716 15.3711 65.1642 15.3868Z" fill="#111111"/>
<path d="M60.588 14.373L54.9633 22.7612C54.2751 23.8323 53.5954 24.042 52.6473 23.8409L51.6667 23.6329C50.8482 23.4592 50.5934 22.9822 50.8273 21.9097L51.475 17.2305C51.5172 17.0668 51.5358 17.0276 51.4629 17.0121C51.39 16.9967 51.3588 17.0246 51.24 17.1806L47.7155 21.2496C46.9792 22.2155 46.3587 22.5069 45.5403 22.3332L44.5516 22.1235C43.6035 21.9224 43.226 21.497 43.5937 20.3493L46.2119 11.3233C46.2194 11.3076 46.2268 11.292 46.238 11.2684C46.3127 11.1116 46.4996 11.0563 46.6616 11.0907L48.5903 11.4999C48.7362 11.5308 48.8224 11.6872 48.749 11.8788L46.2039 19.8327C46.1455 19.9929 46.0932 20.1027 46.1662 20.1181C46.2391 20.1336 46.2876 20.0317 46.3984 19.8739L50.2198 15.4623C50.5267 15.0613 50.9613 14.7478 51.7393 14.9128L52.9954 15.1793C53.7733 15.3443 53.8573 15.7678 53.7612 16.2135L53.0678 21.2887C53.0256 21.4524 52.9733 21.5622 53.0463 21.5776C53.1192 21.5931 53.1677 21.4912 53.2623 21.33L58.0197 13.8454C58.1292 13.6529 58.331 13.5662 58.4769 13.5971L60.4056 14.0063C60.5677 14.0407 60.6725 14.1578 60.5979 14.3147C60.6029 14.3416 60.5954 14.3573 60.588 14.373Z" fill="#111111"/>
<path d="M76.2809 17.374L76.0621 17.3276C75.8757 17.2881 75.6714 17.4174 75.5532 17.5908L69.5071 26.4334C69.4573 26.5006 69.3264 26.5505 69.3102 26.5471L69.3021 26.5453C69.294 26.5436 69.294 26.5436 69.2859 26.5419C69.2329 26.522 69.2391 26.4715 69.2528 26.4054L70.5297 16.7669C70.5618 16.437 70.4425 16.1441 69.9643 16.0427C69.94 16.0375 69.9157 16.0324 69.8914 16.0272C69.8833 16.0255 69.8671 16.0221 69.859 16.0203C69.4757 15.9822 68.9461 16.1202 68.549 16.692L62.4674 25.5529C62.46 25.5686 62.4488 25.5922 62.4338 25.6235C62.3667 25.7646 62.3961 25.909 62.5663 25.9451L62.7527 25.9846C62.9391 26.0242 63.1596 25.8983 63.2778 25.7249L69.3594 16.8639C69.4129 16.7889 69.4684 16.7661 69.5045 16.7652C69.5126 16.7669 69.5164 16.7591 69.5245 16.7608C69.5326 16.7625 69.5326 16.7625 69.5407 16.7642C69.6018 16.7858 69.6442 16.8466 69.6268 16.9206L68.3573 26.5434C68.2905 27.0213 68.4739 27.1983 68.9277 27.2946L68.9358 27.2963C69.3934 27.3847 69.9478 27.1571 70.3218 26.6149L76.3679 17.7723C76.3754 17.7566 76.3941 17.7174 76.4015 17.7017C76.4805 17.5545 76.4673 17.4136 76.2809 17.374Z" fill="#111111"/>
<g clip-path="url(#clip0_1986_5406)">
<path d="M41.7549 41.6722C39.8735 46.8105 41.3909 52.0065 45.5786 53.0256C50.1033 54.1267 56.1242 49.9958 58.6414 44.5226L58.6993 44.3967C54.3582 42.4309 46.3835 45.4568 41.7549 41.6722" fill="#961623"/>
<path opacity="0.8" d="M60.9711 45.1595C64.2694 37.9876 63.5511 32.9162 63.5511 32.9162L47.8593 29.0974C47.8593 29.0974 43.0614 32.8964 39.7919 40.0053C36.6672 46.7997 38.2214 54.2431 43.6314 55.9793C41.7605 59.931 39.5911 63.9499 38.2036 65.2212C36.2188 66.9766 33.0235 65.0798 32.0398 67.2187L44.651 70.2878C45.6347 68.1489 41.5136 68.2652 41.3805 65.9943C41.3239 64.3716 42.9157 60.2122 44.6904 56.2371C50.4476 57.2184 57.8174 52.0167 60.9711 45.1595ZM44.9132 54.4725C40.196 53.3245 38.5539 47.4687 40.6476 41.7525C40.773 41.3633 40.9756 40.9229 41.1492 40.5454C44.0135 34.3173 48.1081 31.1166 48.1081 31.1166L61.682 34.42C61.682 34.42 62.2565 38.7569 59.4981 44.8709L59.4402 44.9968C56.6627 51.0362 49.9673 55.7025 44.9132 54.4725Z" fill="black"/>
</g>
<defs>
<clipPath id="clip0_1986_5406">
<rect width="31.7051" height="44.3169" fill="white" transform="matrix(0.971641 0.236459 -0.417834 0.908523 40.8808 26)"/>
</clipPath>
</defs>
</svg>
