<svg width="191" height="189" viewBox="0 0 191 189" fill="none" xmlns="http://www.w3.org/2000/svg">
<g filter="url(#filter0_f_1986_5387)">
<ellipse cx="76.5" cy="167" rx="72.5" ry="10" fill="url(#paint0_radial_1986_5387)"/>
</g>
<g filter="url(#filter1_f_1986_5387)">
<ellipse cx="114.5" cy="150" rx="72.5" ry="10" fill="url(#paint1_radial_1986_5387)"/>
</g>
<path d="M139.043 145.5C119.843 155.9 99.0425 148.833 91.0425 144.5V115V73.5L91.0426 44C90.0426 33.4992 107.502 22.8341 109.002 24.5008V7C107.002 5.5 107.502 4 109.002 3V0H120.502V3C123.002 5 121.502 6 120.502 7V24.5008C122.002 22.8341 140.043 33.4992 139.043 44V145.5Z" fill="#F7D5E5"/>
<path d="M110.002 1H121.002L122.002 5.5L121.002 10.367V23H110.002V8L108.502 5.5L110.002 1Z" fill="#E14687"/>
<g clip-path="url(#clip0_1986_5387)">
<path d="M131.543 135.146L79.8128 83.657L71.2071 92.3032L122.937 143.792L131.543 135.146Z" fill="#C6621E"/>
<path d="M117.599 123.746L91.1487 97.419L90.8943 97.6745L117.345 124.002L117.599 123.746Z" fill="white"/>
<path d="M131.414 133.157L101.958 103.839L96.5613 109.261L126.017 138.579L131.414 133.157Z" fill="#FDE8D9"/>
<path d="M80.7971 103.79L95.3488 118.273L99.7331 113.868L85.1814 99.3847L80.7971 103.79Z" fill="#F9B950"/>
</g>
<path d="M97.0726 32.5L100.144 30L105.263 26H116.525H125.739L130.858 30L134.442 33L137.001 36H115.501H94.0012L97.0726 32.5Z" fill="#AF1587"/>
<path d="M92.0012 42H134.001V73.5L129.001 75L124.501 76L118.501 76.5H113.001H107.501L102.001 76L96.5012 75L92.0012 73.7311V42Z" fill="#AF1587"/>
<path d="M134.001 42H139.001V145L136.501 146L134.001 147V42Z" fill="#AF1587"/>
<path d="M93.0012 38.5L94.5012 36H116.001H136.501L137.501 38L138.501 40L139.001 42H92.0012L93.0012 38.5Z" fill="#AF1587"/>
<path d="M92.0012 116.085L92.5012 116.336L93.5012 116.836L94.5012 117.336L97.0012 118.336L102.501 120.105L106.001 120.836L109.501 121.336L113.501 121.605H116.001L119.001 121.336L122.501 120.836L126.501 119.836L129.001 118.836L132.501 117.336L134.001 116.336V115.105V147.105L130.001 148.605L125.501 149.605L120.001 150.105L116.001 150.5L111.741 150.105L107.001 149.5L102.501 148.5L97.0012 147L92.0012 144.706V116.085Z" fill="#AF1587"/>
<path d="M109.867 23H120.373L123.001 25.5L125.501 26.7143L129.501 28.5L136.501 36H114.87L94.0012 35.5L104.001 26.7143L107.001 25.5L109.867 23Z" fill="#D5E9E2"/>
<rect x="111" y="5" width="1" height="22" fill="white"/>
<path fill-rule="evenodd" clip-rule="evenodd" d="M109.002 0.5C109.002 0.223858 109.226 0 109.502 0H121.002C121.279 0 121.502 0.223858 121.502 0.5V3.26387C122.053 3.7296 122.428 4.17112 122.645 4.60452C122.894 5.10314 122.926 5.57798 122.794 6.01867C122.668 6.43777 122.406 6.78548 122.145 7.07125C121.981 7.25179 121.784 7.44029 121.607 7.61021C121.571 7.64441 121.536 7.67785 121.502 7.71032V24.3282C121.769 24.3225 122.07 24.367 122.388 24.4433C123.073 24.6081 123.934 24.9464 124.894 25.4192C126.818 26.3675 129.215 27.8945 131.528 29.8018C133.84 31.7085 136.089 34.0116 137.699 36.5186C139.303 39.0159 140.299 41.7551 140.043 44.5234V145C140.043 145.184 139.942 145.352 139.781 145.44C120.378 155.949 99.3897 149.819 91.3044 145.44C91.1431 145.352 91.0426 145.184 91.0426 145L91.0426 44.5234C90.7864 41.7599 91.7421 39.0232 93.2911 36.5253C94.846 34.0181 97.021 31.7144 99.2608 29.8069C101.501 27.8989 103.826 26.371 105.697 25.4218C106.629 24.9487 107.468 24.6094 108.139 24.4439C108.447 24.3681 108.74 24.3233 109.002 24.3281V7.74371C108.067 6.98149 107.613 6.13847 107.692 5.26723C107.767 4.44693 108.303 3.76198 109.002 3.24083V0.5ZM110.002 1V3.5C110.002 3.66718 109.919 3.82329 109.78 3.91602C109.086 4.37867 108.731 4.88817 108.688 5.35777C108.648 5.80154 108.872 6.40254 109.802 7.1C109.928 7.19443 110.002 7.34262 110.002 7.5V25.0008C110.002 25.2078 109.875 25.3934 109.682 25.4676C109.495 25.5393 109.284 25.4924 109.145 25.3499C109.132 25.3448 109.095 25.3331 109.017 25.3291C108.875 25.3217 108.664 25.3445 108.379 25.4149C107.812 25.5547 107.049 25.8572 106.149 26.3136C104.356 27.2235 102.096 28.7057 99.9092 30.5683C97.7216 32.4313 95.6254 34.6587 94.1409 37.0524C92.6551 39.4483 91.8043 41.9739 92.0403 44.4526C92.0418 44.4684 92.0426 44.4842 92.0426 44.5L92.0426 73.6302C95.7998 74.7618 102.177 76.0821 109.507 76.4757C117.072 76.882 125.618 76.2992 133.333 73.5294C133.487 73.4744 133.657 73.4974 133.79 73.5911C133.923 73.6847 134.002 73.8373 134.002 74V116.5C134.002 116.685 133.9 116.855 133.736 116.942C117.032 125.785 100.385 120.636 92.0426 116.33V144.7C100.105 148.956 120.324 154.686 139.043 144.701V44.5C139.043 44.4842 139.043 44.4684 139.045 44.4526C139.28 41.9787 138.397 39.4556 136.858 37.0591C135.32 34.6652 133.152 32.4372 130.892 30.5734C128.632 28.7102 126.3 27.227 124.452 26.3162C123.525 25.8595 122.738 25.556 122.154 25.4156C121.86 25.3449 121.642 25.3216 121.494 25.3291C121.411 25.3333 121.373 25.3457 121.359 25.3509C121.22 25.4926 121.01 25.5392 120.823 25.4676C120.63 25.3934 120.502 25.2078 120.502 25.0008V7.5C120.502 7.36739 120.555 7.24021 120.649 7.14644C120.757 7.03877 120.858 6.94181 120.956 6.84874C121.114 6.69782 121.261 6.55712 121.406 6.3975C121.63 6.15202 121.774 5.93723 121.836 5.73133C121.891 5.54702 121.892 5.33436 121.751 5.05173C121.6 4.75146 121.286 4.36745 120.69 3.89044C120.571 3.79555 120.502 3.65189 120.502 3.5V1H110.002ZM92.0426 115.201C100.034 119.454 116.487 124.792 133.002 116.198V74.7047C125.298 77.3329 116.881 77.8731 109.453 77.4743C102.228 77.0863 95.9089 75.8082 92.0426 74.6735V115.201Z" fill="black"/>
<path d="M98.0413 163.5C78.8413 173.9 58.0413 166.833 50.0413 162.5V133V91.5L50.0413 62C49.0414 51.4992 66.5012 40.8341 68.0012 42.5008V25C66.0012 23.5 66.5012 22 68.0012 21V18H79.5012V21C82.0012 23 80.5012 24 79.5012 25V42.5008C81.0012 40.8341 99.0413 51.4992 98.0413 62V163.5Z" fill="#F7D5E5"/>
<path d="M69.0012 19H80.0012L81.0012 23.5L80.0012 28.367V41H69.0012V26L67.5012 23.5L69.0012 19Z" fill="#F48C2C"/>
<g clip-path="url(#clip1_1986_5387)">
<path d="M90.4076 153.454L38.9106 101.499L30.2659 110.145L81.7629 162.1L90.4076 153.454Z" fill="#CC1A5D"/>
<path d="M76.5156 141.939L50.1842 115.374L49.9286 115.63L76.2601 142.195L76.5156 141.939Z" fill="white"/>
<path d="M90.2871 151.455L60.9645 121.872L55.5432 127.294L84.8658 156.877L90.2871 151.455Z" fill="#F5D6DC"/>
<path d="M39.804 121.727L54.29 136.341L58.6941 131.936L44.2081 117.322L39.804 121.727Z" fill="#F27292"/>
</g>
<path d="M56.0726 50.5L59.1441 48L64.2631 44H75.525H84.7393L89.8584 48L93.4417 51L96.0012 54H74.5012H53.0012L56.0726 50.5Z" fill="#FDE6D0"/>
<path d="M51.0012 60H93.0012V91.5L88.0012 93L83.5012 94L77.5012 94.5H72.0012H66.5012L61.0012 94L55.5012 93L51.0012 91.7311V60Z" fill="#FDE6D0"/>
<path d="M93.0012 60H98.0012V163L95.5012 164L93.0012 165V60Z" fill="#FDE6D0"/>
<path d="M52.0012 56.5L53.5012 54H75.0012H95.5012L96.5012 56L97.5012 58L98.0012 60H51.0012L52.0012 56.5Z" fill="#FDE6D0"/>
<path d="M51.0012 134.085L51.5012 134.336L52.5012 134.836L53.5012 135.336L56.0012 136.336L61.5012 138.105L65.0012 138.836L68.5012 139.336L72.5012 139.605H75.0012L78.0012 139.336L81.5012 138.836L85.5012 137.836L88.0012 136.836L91.5012 135.336L93.0012 134.336V133.105V165.105L89.0012 166.605L84.5012 167.605L79.0012 168.105L75.0012 168.5L70.741 168.105L66.0012 167.5L61.5012 166.5L56.0012 165L51.0012 162.706V134.085Z" fill="#FDE6D0"/>
<path d="M68.8671 41H79.3728L82.0012 43.5L84.5012 44.7143L88.5012 46.5L95.5012 54H73.8699L53.0012 53.5L63.0012 44.7143L66.0012 43.5L68.8671 41Z" fill="#D5E9E2"/>
<path fill-rule="evenodd" clip-rule="evenodd" d="M68.0024 18.5C68.0024 18.2239 68.2263 18 68.5024 18H80.0024C80.2786 18 80.5024 18.2239 80.5024 18.5V21.2639C81.0529 21.7296 81.4283 22.1711 81.645 22.6045C81.8943 23.1031 81.9261 23.578 81.7939 24.0187C81.6681 24.4378 81.4059 24.7855 81.1454 25.0713C80.9807 25.2518 80.784 25.4403 80.6067 25.6102C80.571 25.6444 80.5361 25.6779 80.5024 25.7103V42.3282C80.7692 42.3225 81.0703 42.367 81.3876 42.4433C82.0731 42.6081 82.9342 42.9464 83.8938 43.4192C85.8184 44.3675 88.2151 45.8945 90.5281 47.8018C92.8404 49.7085 95.0887 52.0116 96.6992 54.5186C98.3033 57.0159 99.299 59.7551 99.0426 62.5234V163C99.0426 163.184 98.9421 163.352 98.7807 163.44C79.3784 173.949 58.3897 167.819 50.3044 163.44C50.1431 163.352 50.0426 163.184 50.0426 163L50.0426 62.5234C49.7864 59.7599 50.7421 57.0232 52.2911 54.5253C53.846 52.0181 56.021 49.7144 58.2608 47.8069C60.5012 45.8989 62.8256 44.371 64.6965 43.4218C65.6292 42.9487 66.4684 42.6094 67.1393 42.4439C67.447 42.3681 67.7405 42.3233 68.0024 42.3281V25.7437C67.0673 24.9815 66.6128 24.1385 66.692 23.2672C66.7666 22.4469 67.3028 21.762 68.0024 21.2408V18.5ZM69.0024 19V21.5C69.0024 21.6672 68.9189 21.8233 68.7798 21.916C68.0858 22.3787 67.7306 22.8882 67.6879 23.3578C67.6475 23.8015 67.8725 24.4025 68.8024 25.1C68.9283 25.1944 69.0024 25.3426 69.0024 25.5V43.0008C69.0024 43.2078 68.8748 43.3934 68.6816 43.4676C68.4946 43.5393 68.2835 43.4924 68.1446 43.3499C68.1317 43.3448 68.0947 43.3331 68.0167 43.3291C67.8749 43.3217 67.664 43.3445 67.3787 43.4149C66.8117 43.5547 66.0486 43.8572 65.149 44.3136C63.3556 45.2235 61.0963 46.7057 58.9092 48.5683C56.7216 50.4313 54.6254 52.6587 53.1409 55.0524C51.6551 57.4483 50.8043 59.9739 51.0403 62.4526C51.0418 62.4684 51.0426 62.4842 51.0426 62.5L51.0426 91.6302C54.7998 92.7618 61.1768 94.0821 68.5068 94.4757C76.0718 94.882 84.6176 94.2992 92.3335 91.5294C92.4867 91.4744 92.657 91.4974 92.7901 91.5911C92.9232 91.6847 93.0024 91.8373 93.0024 92V134.5C93.0024 134.685 92.9001 134.855 92.7364 134.942C76.032 143.785 59.3855 138.636 51.0426 134.33V162.7C59.1046 166.956 79.3238 172.686 98.0426 162.701V62.5C98.0426 62.4842 98.0433 62.4684 98.0448 62.4526C98.2804 59.9787 97.3972 57.4556 95.8578 55.0591C94.3201 52.6652 92.1522 50.4372 89.8919 48.5734C87.6324 46.7102 85.3003 45.227 83.4518 44.3162C82.5247 43.8595 81.7382 43.556 81.1539 43.4156C80.86 43.3449 80.6417 43.3216 80.4942 43.3291C80.4114 43.3333 80.3725 43.3457 80.3594 43.3509C80.2204 43.4926 80.0099 43.5392 79.8233 43.4676C79.63 43.3934 79.5024 43.2078 79.5024 43.0008V25.5C79.5024 25.3674 79.5551 25.2402 79.6489 25.1464C79.7566 25.0388 79.8581 24.9418 79.9555 24.8487C80.1135 24.6978 80.2609 24.5571 80.4064 24.3975C80.6302 24.152 80.7743 23.9372 80.836 23.7313C80.8913 23.547 80.8919 23.3344 80.7505 23.0517C80.6004 22.7515 80.2864 22.3674 79.6901 21.8904C79.5715 21.7955 79.5024 21.6519 79.5024 21.5V19H69.0024ZM51.0426 133.201C59.0342 137.454 75.4866 142.792 92.0024 134.198V92.7047C84.2979 95.3329 75.8809 95.8731 68.4532 95.4743C61.2283 95.0863 54.9089 93.8082 51.0426 92.6735V133.201Z" fill="black"/>
<rect x="70" y="24" width="1" height="22" fill="white"/>
<path d="M54.2752 63.9993C54.2752 55 58.5 52.5 61.5 51.5" stroke="white" stroke-width="2" stroke-linejoin="round"/>
<path d="M96.2642 46.4993C96.2642 37.5 100.489 35 103.489 34" stroke="white" stroke-width="2" stroke-linejoin="round"/>
<defs>
<filter id="filter0_f_1986_5387" x="0" y="153" width="153" height="28" filterUnits="userSpaceOnUse" color-interpolation-filters="sRGB">
<feFlood flood-opacity="0" result="BackgroundImageFix"/>
<feBlend mode="normal" in="SourceGraphic" in2="BackgroundImageFix" result="shape"/>
<feGaussianBlur stdDeviation="2" result="effect1_foregroundBlur_1986_5387"/>
</filter>
<filter id="filter1_f_1986_5387" x="38" y="136" width="153" height="28" filterUnits="userSpaceOnUse" color-interpolation-filters="sRGB">
<feFlood flood-opacity="0" result="BackgroundImageFix"/>
<feBlend mode="normal" in="SourceGraphic" in2="BackgroundImageFix" result="shape"/>
<feGaussianBlur stdDeviation="2" result="effect1_foregroundBlur_1986_5387"/>
</filter>
<radialGradient id="paint0_radial_1986_5387" cx="0" cy="0" r="1" gradientUnits="userSpaceOnUse" gradientTransform="translate(76.5 167) rotate(90) scale(10 72.5)">
<stop stop-opacity="0.51"/>
<stop offset="0.661458" stop-color="#D9D9D9" stop-opacity="0"/>
</radialGradient>
<radialGradient id="paint1_radial_1986_5387" cx="0" cy="0" r="1" gradientUnits="userSpaceOnUse" gradientTransform="translate(114.5 150) rotate(90) scale(10 72.5)">
<stop stop-opacity="0.51"/>
<stop offset="0.661458" stop-color="#D9D9D9" stop-opacity="0"/>
</radialGradient>
<clipPath id="clip0_1986_5387">
<rect width="30" height="30" fill="white" transform="matrix(-0.999997 0.0023425 0.0023425 0.999997 122.002 91)"/>
</clipPath>
<clipPath id="clip1_1986_5387">
<rect width="30" height="30.1356" fill="white" transform="matrix(-0.999998 -0.00216893 -0.00216893 0.999998 81.0665 109.065)"/>
</clipPath>
</defs>
</svg>
