<svg width="72" height="72" viewBox="0 0 72 72" fill="none" xmlns="http://www.w3.org/2000/svg">
<rect width="72" height="72" rx="36" fill="#D5E9E2"/>
<mask id="mask0" mask-type="alpha" maskUnits="userSpaceOnUse" x="0" y="0" width="72" height="72">
<rect width="72" height="72" rx="36" fill="white"/>
</mask>
<g mask="url(#mask0)">
<path fill-rule="evenodd" clip-rule="evenodd" d="M50.5116 40.5784L38.9543 40.6499C36.8423 42.4829 33.8268 45.4629 33.8399 47.5422L34.8534 93.0784C34.8944 93.802 35.4972 94.3655 36.2247 94.361L53.9145 94.2514C54.6415 94.2463 55.2374 93.6754 55.2699 92.9518L55.712 47.406C55.6989 45.3267 52.6463 42.3847 50.5116 40.5784Z" fill="#FDE6D0"/>
<path fill-rule="evenodd" clip-rule="evenodd" d="M48.3598 36.2606L47.7448 23.7967L48.6615 23.7911L48.6523 22.3364L47.7328 21.7966L47.722 20.1599L44.6062 20.1797L41.4898 20.1989L41.5007 21.8351L40.5874 22.3861L40.5965 23.8408L41.5132 23.8352C41.5132 23.8352 41.1267 34.3645 41.0555 36.3031C41.0541 36.3411 48.3598 36.2606 48.3598 36.2606Z" fill="#F48C2C"/>
<path fill-rule="evenodd" clip-rule="evenodd" d="M48.4804 38.7024L47.7449 23.7967L48.6616 23.7911L48.6525 22.3364L47.733 21.7966L47.7221 20.1599L44.6064 20.1797L41.49 20.1989L41.5008 21.8351L40.5876 22.3861L40.5967 23.8408L41.5133 23.8352L40.9658 38.7493C40.9658 38.7493 33.8204 44.0664 33.8404 47.2488L34.8533 92.5971C34.8944 93.3171 35.4977 93.8789 36.2246 93.8743L53.9144 93.7647C54.6414 93.7602 55.2373 93.1911 55.2698 92.4705L55.7119 47.1132C55.6919 43.9307 48.4804 38.7024 48.4804 38.7024Z" stroke="#7F1E69" stroke-width="1.2" stroke-linecap="round" stroke-linejoin="round"/>
<path fill-rule="evenodd" clip-rule="evenodd" d="M36.9341 87.4869L52.6742 87.4869L52.6742 52.7885L36.9341 52.7885L36.9341 87.4869Z" fill="#ECCBE5"/>
<mask id="mask1" mask-type="alpha" maskUnits="userSpaceOnUse" x="36" y="52" width="17" height="36">
<path fill-rule="evenodd" clip-rule="evenodd" d="M36.9341 87.4869L52.6742 87.4869L52.6742 52.7885L36.9341 52.7885L36.9341 87.4869Z" fill="white"/>
</mask>
<g mask="url(#mask1)">
<path fill-rule="evenodd" clip-rule="evenodd" d="M36.9346 78.1089L36.9346 93.9872H39.2471L48.9909 76.8612L40.5416 71.7689L36.9346 78.1089Z" fill="#5CB79F"/>
<path fill-rule="evenodd" clip-rule="evenodd" d="M36.9351 68.7167L49.3615 76.1813L52.0828 71.4138L36.9351 62.3146L36.9351 68.7167Z" fill="#DF3378"/>
<path fill-rule="evenodd" clip-rule="evenodd" d="M36.9346 75.4076L37.4269 75.7081L39.8714 71.3556L36.9346 69.5626L36.9346 75.4076Z" fill="#F75F75"/>
</g>
<path fill-rule="evenodd" clip-rule="evenodd" d="M33.2978 38.8956L22.6929 38.9612C20.755 40.6432 17.988 43.3776 18 45.2856L18.93 87.0691C18.9677 87.7331 19.5208 88.2502 20.1883 88.246L36.4203 88.1455C37.0874 88.1408 37.6342 87.6169 37.664 86.953L38.0696 45.1606C38.0576 43.2526 35.2566 40.5531 33.2978 38.8956Z" fill="#AF1587"/>
<path fill-rule="evenodd" clip-rule="evenodd" d="M31.3233 34.9337L30.7589 23.497L31.6001 23.4918L31.5917 22.157L30.748 21.6617L30.738 20.1599L27.879 20.1781L25.0195 20.1957L25.0294 21.697L24.1914 22.2026L24.1998 23.5375L25.0409 23.5323C25.0409 23.5323 24.6862 33.1939 24.6209 34.9728C24.6196 35.0076 31.3233 34.9337 31.3233 34.9337Z" fill="#E14687"/>
<path fill-rule="evenodd" clip-rule="evenodd" d="M31.4341 37.1743L30.7592 23.497L31.6003 23.4918L31.592 22.157L30.7482 21.6617L30.7383 20.1599L27.8793 20.1781L25.0197 20.1957L25.0297 21.697L24.1917 22.2026L24.2 23.5375L25.0412 23.5323L24.5388 37.2173C24.5388 37.2173 17.9822 42.0962 18.0005 45.0164L18.93 86.6275C18.9676 87.2882 19.5213 87.8037 20.1883 87.7995L36.4203 87.6989C37.0873 87.6948 37.6341 87.1725 37.6639 86.5113L38.0696 44.892C38.0513 41.9718 31.4341 37.1743 31.4341 37.1743Z" stroke="#7F1E69" stroke-width="1.2" stroke-linecap="round" stroke-linejoin="round"/>
<path fill-rule="evenodd" clip-rule="evenodd" d="M20.8394 81.9385L35.2824 81.9385L35.2824 50.0995L20.8394 50.0995L20.8394 81.9385Z" fill="#F7D5E5"/>
<mask id="mask2" mask-type="alpha" maskUnits="userSpaceOnUse" x="20" y="50" width="16" height="32">
<path fill-rule="evenodd" clip-rule="evenodd" d="M20.8394 81.9385L35.2824 81.9385L35.2824 50.0995L20.8394 50.0995L20.8394 81.9385Z" fill="white"/>
</mask>
<g mask="url(#mask2)">
<path fill-rule="evenodd" clip-rule="evenodd" d="M20.8389 73.3334L20.8389 87.9032H22.9608L31.9016 72.1885L24.1487 67.5159L20.8389 73.3334Z" fill="#5CB79F"/>
<path fill-rule="evenodd" clip-rule="evenodd" d="M38.4169 75.1789L32.894 71.8898L34.7464 68.6724L40.2692 71.9616L38.4169 75.1789Z" fill="#B71277"/>
<path fill-rule="evenodd" clip-rule="evenodd" d="M20.8394 64.7152L32.2417 71.5647L34.7387 67.1901L20.8394 58.8407L20.8394 64.7152Z" fill="#DF3378"/>
<path fill-rule="evenodd" clip-rule="evenodd" d="M20.8389 70.8546L21.2906 71.1304L23.5336 67.1366L20.8389 65.4913L20.8389 70.8546Z" fill="#F75F75"/>
</g>
</g>
</svg>
